<svg viewBox="0 0 100 100" xmlns="http://www.w3.org/2000/svg">
  <circle cx="50" cy="50" r="15" fill="#000000"/>
  <path fill="#000000" d="M50,30 Q40,35 40,45 Q45,55 50,50 Q55,55 60,45 Q60,35 50,30 Z"/>
  <path fill="#000000" d="M70,50 Q65,40 55,40 Q45,45 50,50 Q45,55 55,60 Q65,60 70,50 Z"/>
  <path fill="#000000" d="M50,70 Q40,65 40,55 Q45,45 50,50 Q55,45 60,55 Q60,65 50,70 Z"/>
  <path fill="#000000" d="M30,50 Q35,40 45,40 Q55,45 50,50 Q55,55 45,60 Q35,60 30,50 Z"/>
  <path fill="#000000" d="M62,38 Q50,30 38,38 Q30,50 38,62 Q50,70 62,62 Q70,50 62,38 Z" transform="rotate(30 50 50)"/>
  <path fill="#000000" d="M62,38 Q50,30 38,38 Q30,50 38,62 Q50,70 62,62 Q70,50 62,38 Z" transform="rotate(-30 50 50)"/>
</svg>
